<svg width="20" height="20" viewBox="0 0 20 20" fill="none" xmlns="http://www.w3.org/2000/svg">
<g id="Frame">
<g id="Group">
<path id="Vector" d="M3.76835 10.1406L5.66679 9.44918C5.72538 9.42578 5.79569 9.41406 5.86597 9.41406H18.03C18.3582 9.41406 18.616 9.67184 18.616 10V18.2422C18.616 19.2148 17.8308 20 16.8582 20H5.1394C4.16671 20 3.38159 19.2148 3.38159 18.2422V10.6914C3.38159 10.4453 3.53397 10.2227 3.76835 10.1406Z" fill="#FC1A40"/>
<path id="Vector_2" d="M3.38135 10.6914V18.2422C3.38135 19.2148 4.16646 20 5.13916 20H10.9985V9.41406H5.86572C5.79541 9.41406 5.7251 9.42578 5.66654 9.44918L3.76811 10.1406C3.53373 10.2227 3.38135 10.4453 3.38135 10.6914Z" fill="#C60034"/>
<path id="Vector_3" d="M3.59235 3.81984C3.79153 3.01124 4.38922 2.37847 5.19782 2.12062C5.99469 1.87449 6.8502 2.05031 7.47126 2.61277L8.83067 3.80812L9.10016 2.01519C9.22907 1.19488 9.75641 0.50343 10.5415 0.175344C10.6939 0.116712 10.8462 0.0698366 10.9986 0.0463991C11.6431 -0.0825072 12.3111 0.0581178 12.8502 0.456594C13.565 0.972219 13.9282 1.83941 13.8111 2.70656C13.6822 3.57374 13.0962 4.31202 12.2642 4.60499L10.9986 5.06202L9.43997 5.63624C9.42825 5.63624 9.42825 5.63624 9.42825 5.63624L6.72122 6.6323C6.45172 6.72609 6.17047 6.773 5.90094 6.773C5.32665 6.773 4.76418 6.56199 4.31887 6.16359C3.66266 5.57765 3.38141 4.67527 3.59235 3.81984Z" fill="#FE9923"/>
<path id="Vector_4" d="M4.31885 6.16361C4.76416 6.56201 5.32666 6.77303 5.90092 6.77303C6.17041 6.77303 6.45166 6.72611 6.72119 6.63232L9.42822 5.63627C9.42822 5.63627 9.42822 5.63627 9.43994 5.63627L10.9985 5.06205V0.0463867C10.8462 0.0698633 10.6938 0.116699 10.5415 0.175332C9.75639 0.503418 9.229 1.19486 9.10014 2.01518L8.83064 3.80811L7.47123 2.61275C6.85018 2.05029 5.99467 1.87447 5.19779 2.12061C4.3892 2.37846 3.79154 3.01123 3.59232 3.81982C3.38135 4.67529 3.6626 5.57768 4.31885 6.16361Z" fill="#FE8821"/>
<path id="Vector_5" d="M1.37758 9.14444L2.17446 11.3476C2.26824 11.5819 2.4909 11.7226 2.72528 11.7226C2.79559 11.7226 2.8659 11.7108 2.92445 11.6875L8.98309 9.48433L9.53383 7.66792L10.9987 7.99601L12.2877 8.28897L18.3463 6.08585C18.651 5.9687 18.8033 5.62882 18.6979 5.33585L17.8893 3.1328C17.737 2.68749 17.4088 2.33585 16.9869 2.13667C16.565 1.93749 16.0846 1.91401 15.6393 2.07808L10.9986 3.76558L10.6822 3.88273C10.6822 3.88273 9.4166 6.17964 9.38141 6.17964C9.35793 6.17964 8.85406 5.89839 8.36188 5.62882C7.86981 5.35929 7.37758 5.07808 7.37758 5.07808L2.43231 6.88272C1.98699 7.04679 1.63543 7.37495 1.43625 7.79683C1.23696 8.21866 1.21356 8.69917 1.37758 9.14444Z" fill="#FF3E75"/>
<path id="Vector_6" d="M1.37744 9.14443L2.17432 11.3476C2.26811 11.5819 2.49076 11.7226 2.72514 11.7226C2.79545 11.7226 2.86576 11.7108 2.92432 11.6874L8.98295 9.48431L9.53369 7.66791L10.9985 7.99599V3.76556L10.6821 3.88271C10.6821 3.88271 9.4165 6.17963 9.38131 6.17963C9.35783 6.17963 8.85396 5.89838 8.36178 5.62881C7.86967 5.35928 7.37744 5.07806 7.37744 5.07806L2.43217 6.88271C1.98686 7.04677 1.63529 7.37494 1.43611 7.79681C1.23682 8.21865 1.21342 8.69916 1.37744 9.14443Z" fill="#FC1A40"/>
<g id="Group_2">
<path id="Vector_7" d="M12.7566 9.41406V20H9.24097V9.41406H12.7566Z" fill="#FCBF29"/>
<path id="Vector_8" d="M10.6824 3.88275L10.9988 4.74994L12.2878 8.28904L10.9988 8.75783L9.53398 9.28517L8.98323 9.48435L7.37769 5.0781L10.6824 3.88275Z" fill="#FCBF29"/>
</g>
<g id="Group_3">
<path id="Vector_9" d="M9.24048 9.41406H10.9983V20H9.24048V9.41406Z" fill="#FE9923"/>
<path id="Vector_10" d="M7.37744 5.0781L8.98295 9.48435L9.53369 9.28513L10.9985 8.75779V4.74994L10.6821 3.88275L7.37744 5.0781Z" fill="#FE9923"/>
</g>
</g>
</g>
</svg>
